<svg>
    <symbol id="refresh" viewBox="0 0 16 16" fill="none" xmlns="http://www.w3.org/2000/svg">
        <path fill-rule="evenodd" clip-rule="evenodd"
            d="M5.56253 2.51577C3.46348 3.4501 2 5.55414 2 7.99999C2 11.3137 4.68629 14 8 14C11.3137 14 14 11.3137 14 7.99999C14 5.32519 12.2497 3.05919 9.83199 2.28482L9.52968 3.23832C11.5429 3.88454 13 5.7721 13 7.99999C13 10.7614 10.7614 13 8 13C5.23858 13 3 10.7614 3 7.99999C3 6.31104 3.83742 4.81767 5.11969 3.91245L5.56253 2.51577Z"
            fill="currentColor" />
        <path fill-rule="evenodd" clip-rule="evenodd" d="M5 3H2V2H5.5L6 2.5V6H5V3Z" fill="currentColor" />
    </symbol>

    <symbol id="add-file" viewBox="0 0 16 16" fill="none" xmlns="http://www.w3.org/2000/svg">
        <path fill-rule="evenodd" clip-rule="evenodd"
            d="M4 7H3V4H0V3H3V0H4V3H7V4H4V7ZM10.5 1.09998L13.9 4.59998L14 5V13.5L13.5 14H3.5L3 13.5V8H4V13H13V6H9V2H5V1H10.2L10.5 1.09998ZM10 2V5H12.9L10 2Z"
            fill="currentColor" />
    </symbol>

    <symbol id="trash" viewBox="0 0 16 16" fill="none" xmlns="http://www.w3.org/2000/svg">
        <path fill-rule="evenodd" clip-rule="evenodd"
            d="M10 3H12H13V4H12V13L11 14H4L3 13V4H2V3H5V2C5 1.73478 5.10531 1.48038 5.29285 1.29285C5.48038 1.10531 5.73478 1 6 1H9C9.26522 1 9.51962 1.10531 9.70715 1.29285C9.89469 1.48038 10 1.73478 10 2V3ZM9 2H6V3H9V2ZM4 13H11V4H4V13ZM6 5H5V12H6V5ZM7 5H8V12H7V5ZM9 5H10V12H9V5Z"
            fill="currentColor" />
    </symbol>

    <symbol id="edit" viewBox="0 0 16 16" fill="none" xmlns="http://www.w3.org/2000/svg">
        <path
            d="M13.23 1H11.77L3.52002 9.25L3.35999 9.46997L1 13.59L2.41003 15L6.53003 12.64L6.75 12.48L15 4.22998V2.77002L13.23 1ZM2.41003 13.59L3.92004 10.59L5.37 12.04L2.41003 13.59ZM6.23999 11.53L4.46997 9.76001L12.47 1.76001L14.24 3.53003L6.23999 11.53Z"
            fill="currentColor" />
    </symbol>
</svg>