<svg>
    <symbol id="refresh" viewBox="0 0 16 16" fill="none" xmlns="http://www.w3.org/2000/svg">
        <path fill-rule="evenodd" clip-rule="evenodd"
            d="M5.56253 2.51577C3.46348 3.4501 2 5.55414 2 7.99999C2 11.3137 4.68629 14 8 14C11.3137 14 14 11.3137 14 7.99999C14 5.32519 12.2497 3.05919 9.83199 2.28482L9.52968 3.23832C11.5429 3.88454 13 5.7721 13 7.99999C13 10.7614 10.7614 13 8 13C5.23858 13 3 10.7614 3 7.99999C3 6.31104 3.83742 4.81767 5.11969 3.91245L5.56253 2.51577Z"
            fill="currentColor" />
        <path fill-rule="evenodd" clip-rule="evenodd" d="M5 3H2V2H5.5L6 2.5V6H5V3Z" fill="currentColor" />
    </symbol>

    <symbol id="add-file" viewBox="0 0 16 16" fill="none" xmlns="http://www.w3.org/2000/svg">
        <path fill-rule="evenodd" clip-rule="evenodd"
            d="M4 7H3V4H0V3H3V0H4V3H7V4H4V7ZM10.5 1.09998L13.9 4.59998L14 5V13.5L13.5 14H3.5L3 13.5V8H4V13H13V6H9V2H5V1H10.2L10.5 1.09998ZM10 2V5H12.9L10 2Z"
            fill="currentColor" />
    </symbol>


</svg>